<svg xmlns="http://www.w3.org/2000/svg" xmlns:xlink="http://www.w3.org/1999/xlink" width="500" zoomAndPan="magnify" viewBox="0 0 375 374.999991" height="500" preserveAspectRatio="xMidYMid meet" version="1.0"><defs><g/><clipPath id="f2d596152b"><path d="M 70.140625 144.347656 L 182.804688 144.347656 L 182.804688 242.785156 L 70.140625 242.785156 Z M 70.140625 144.347656 " clip-rule="nonzero"/></clipPath><clipPath id="160960121c"><path d="M 126.390625 242.785156 L 182.640625 144.347656 L 70.140625 144.347656 Z M 126.390625 242.785156 " clip-rule="nonzero"/></clipPath><clipPath id="342566f4eb"><path d="M 83.582031 113.550781 L 169.082031 113.550781 L 169.082031 242.550781 L 83.582031 242.550781 Z M 83.582031 113.550781 " clip-rule="nonzero"/></clipPath></defs><g clip-path="url(#f2d596152b)"><g clip-path="url(#160960121c)"><path fill="#ff00c7" d="M 70.140625 144.347656 L 182.804688 144.347656 L 182.804688 242.785156 L 70.140625 242.785156 Z M 70.140625 144.347656 " fill-opacity="1" fill-rule="nonzero"/></g></g><g clip-path="url(#342566f4eb)"><path fill="#00ffff" d="M 168.746094 227.824219 C 168.65625 227.734375 168.566406 227.652344 168.476562 227.566406 C 165.394531 224.574219 162.3125 221.589844 159.226562 218.601562 C 159.136719 218.515625 159.03125 218.4375 158.964844 218.335938 C 158.6875 217.9375 158.351562 217.648438 157.859375 217.507812 C 157.539062 217.414062 157.226562 217.355469 156.902344 217.324219 C 156.777344 217.308594 156.652344 217.277344 156.464844 217.242188 C 157.003906 216.679688 157.40625 216.128906 157.683594 215.488281 C 157.933594 214.917969 158.183594 214.34375 158.429688 213.765625 C 158.894531 212.660156 159.148438 211.5 159.226562 210.304688 C 159.414062 207.453125 158.863281 204.769531 157.449219 202.261719 C 156.617188 200.78125 155.613281 199.421875 154.632812 198.042969 C 153.898438 197.011719 153.203125 195.953125 152.511719 194.941406 C 153.0625 194.226562 153.628906 193.574219 154.089844 192.855469 C 154.441406 192.316406 154.890625 191.847656 155.179688 191.246094 C 155.605469 190.367188 155.898438 189.449219 156.191406 188.523438 C 156.332031 188.0625 156.261719 187.726562 155.863281 187.414062 C 155.230469 186.925781 155.3125 187.128906 155.527344 186.339844 C 156.417969 183.046875 157 179.710938 157.1875 176.304688 C 157.375 172.84375 157.140625 169.417969 156.339844 166.042969 C 155.425781 162.207031 153.828125 158.703125 151.285156 155.664062 C 151.246094 155.617188 151.222656 155.558594 151.191406 155.511719 C 151.375 154.914062 151.535156 154.328125 151.730469 153.746094 C 152.296875 152.097656 152.710938 150.417969 152.90625 148.683594 C 153.046875 147.417969 153.125 146.152344 152.929688 144.886719 C 152.550781 142.425781 151.847656 140.066406 150.644531 137.867188 C 150.011719 136.714844 149.398438 135.550781 148.746094 134.410156 C 147.199219 131.679688 146.289062 128.769531 146.128906 125.628906 C 146.035156 123.835938 146.066406 122.046875 146.527344 120.308594 C 147.074219 118.246094 148.042969 116.371094 149.328125 114.667969 C 149.382812 114.59375 149.445312 114.515625 149.484375 114.433594 C 149.597656 114.195312 149.519531 113.964844 149.398438 113.765625 C 149.277344 113.566406 149.066406 113.550781 148.851562 113.617188 C 148.539062 113.714844 148.21875 113.789062 147.910156 113.902344 C 146.859375 114.289062 145.882812 114.824219 144.992188 115.492188 C 143.15625 116.875 141.492188 118.433594 140.140625 120.3125 C 139.125 121.726562 138.210938 123.199219 137.710938 124.894531 C 137.035156 127.175781 136.855469 129.5 137.089844 131.867188 C 137.324219 134.1875 137.574219 136.507812 137.765625 138.832031 C 137.960938 141.1875 137.664062 143.488281 136.773438 145.695312 C 136.636719 146.035156 136.46875 146.371094 136.3125 146.710938 C 136.238281 146.667969 136.207031 146.660156 136.183594 146.636719 C 134.007812 144.667969 132.660156 142.265625 132.390625 139.308594 C 132.285156 138.136719 132.257812 136.960938 132.542969 135.804688 C 132.601562 135.5625 132.691406 135.328125 132.765625 135.089844 C 132.855469 134.808594 132.730469 134.441406 132.503906 134.308594 C 132.277344 134.175781 132.082031 134.25 131.839844 134.570312 C 131.773438 134.65625 131.707031 134.742188 131.644531 134.832031 C 130.851562 136.089844 130.015625 137.324219 129.273438 138.609375 C 128.25 140.394531 127.421875 142.269531 126.953125 144.285156 C 126.707031 145.339844 126.527344 146.410156 126.710938 147.492188 C 126.800781 147.996094 126.957031 148.484375 127.085938 148.988281 C 127.082031 148.992188 127.0625 149.019531 127.03125 149.027344 C 126.941406 149.054688 126.851562 149.078125 126.761719 149.101562 C 124.726562 149.625 122.742188 150.292969 120.8125 151.125 C 116.144531 153.132812 111.929688 155.871094 108.050781 159.144531 C 107.769531 159.378906 107.4375 159.574219 107.371094 159.988281 C 107.03125 159.910156 106.722656 159.847656 106.425781 159.757812 C 105.976562 159.625 105.597656 159.699219 105.265625 160.046875 C 104.480469 160.875 103.683594 161.691406 102.898438 162.519531 C 102.746094 162.679688 102.5625 162.839844 102.496094 163.035156 C 102.28125 163.632812 101.902344 164.078125 101.390625 164.441406 C 101.328125 164.484375 101.28125 164.554688 101.234375 164.617188 C 100.386719 165.824219 99.601562 167.066406 99.160156 168.492188 C 99.125 168.609375 99.074219 168.726562 99.003906 168.824219 C 98.863281 169.015625 98.867188 169.191406 98.996094 169.382812 C 99.136719 169.59375 99.296875 169.726562 99.578125 169.683594 C 99.796875 169.652344 100.023438 169.6875 100.308594 169.691406 C 100.214844 169.871094 100.164062 169.984375 100.097656 170.085938 C 99.746094 170.566406 99.410156 171.058594 99.039062 171.527344 C 97.75 173.140625 96.507812 174.796875 95.449219 176.574219 C 94.371094 178.375 93.257812 180.160156 92.449219 182.105469 C 92.007812 183.167969 91.652344 184.25 91.734375 185.421875 C 91.8125 186.554688 92.300781 187.425781 93.351562 187.933594 C 93.535156 188.019531 93.707031 188.117188 93.886719 188.210938 C 93.691406 188.53125 93.488281 188.816406 93.339844 189.125 C 93.15625 189.5 92.972656 189.890625 92.875 190.296875 C 92.597656 191.417969 92.824219 192.492188 93.226562 193.554688 C 93.660156 194.710938 94.503906 195.375 95.648438 195.714844 C 95.792969 195.757812 95.941406 195.796875 96.058594 195.828125 C 95.621094 196.71875 95.152344 197.570312 94.777344 198.460938 C 93.652344 201.089844 93.09375 203.863281 92.875 206.703125 C 92.773438 208.03125 92.777344 209.367188 92.78125 210.695312 C 92.796875 212.902344 92.867188 215.105469 92.878906 217.3125 C 92.890625 219.375 92.628906 221.402344 92.15625 223.410156 C 92.089844 223.675781 92.015625 223.945312 91.9375 224.242188 C 91.769531 224.136719 91.648438 224.066406 91.53125 223.988281 C 90.351562 223.214844 89.085938 223.097656 87.753906 223.5 C 86.089844 224.003906 85.007812 225.152344 84.328125 226.691406 C 83.664062 228.207031 83.867188 229.660156 84.796875 231.015625 C 85.320312 231.78125 86.007812 232.378906 86.8125 232.820312 C 87.386719 233.132812 87.960938 233.429688 88.511719 233.789062 C 89.855469 234.65625 91.371094 234.835938 92.9375 234.671875 C 93.152344 234.648438 93.304688 234.691406 93.488281 234.8125 C 93.894531 235.066406 94.324219 235.316406 94.777344 235.472656 C 95.800781 235.824219 96.871094 235.839844 97.933594 235.714844 C 98.535156 235.644531 99.128906 235.507812 99.785156 235.394531 C 99.734375 235.484375 99.71875 235.527344 99.691406 235.5625 C 98.382812 237.078125 97.453125 238.800781 96.847656 240.703125 C 96.726562 241.089844 96.613281 241.484375 96.511719 241.875 C 96.480469 242.007812 96.488281 242.15625 96.511719 242.289062 C 96.574219 242.621094 96.871094 242.652344 97.121094 242.71875 C 97.351562 242.78125 97.519531 242.664062 97.621094 242.464844 C 97.941406 241.832031 98.480469 241.394531 98.992188 240.9375 C 100.609375 239.507812 102.425781 238.367188 104.328125 237.359375 C 107.617188 235.617188 111.085938 234.316406 114.636719 233.222656 C 118.636719 231.992188 122.707031 231.058594 126.824219 230.320312 C 129.84375 229.773438 132.882812 229.328125 135.9375 229.019531 C 138.382812 228.769531 140.832031 228.5625 143.285156 228.410156 C 145.476562 228.273438 147.667969 228.183594 149.859375 228.164062 C 152.351562 228.136719 154.839844 228.191406 157.332031 228.238281 C 160.007812 228.289062 162.679688 228.496094 165.34375 228.75 C 166.292969 228.839844 167.242188 228.964844 168.195312 229.050781 C 168.367188 229.066406 168.59375 229.046875 168.71875 228.945312 C 169.105469 228.652344 169.097656 228.183594 168.746094 227.824219 Z M 157.386719 218.230469 C 157.53125 218.242188 157.691406 218.316406 157.796875 218.414062 C 160.074219 220.613281 162.34375 222.816406 164.613281 225.019531 C 164.65625 225.0625 164.691406 225.113281 164.789062 225.230469 C 164.230469 225.15625 163.75 225.082031 163.269531 225.023438 C 161.949219 224.867188 160.628906 224.699219 159.304688 224.574219 C 156.15625 224.28125 152.992188 224.152344 149.828125 224.222656 C 147.4375 224.28125 145.039062 224.386719 142.652344 224.558594 C 140.402344 224.726562 138.160156 224.953125 135.925781 225.253906 C 126.234375 226.566406 116.8125 228.886719 107.820312 232.804688 C 105.507812 233.8125 103.257812 234.949219 101.089844 236.238281 C 100.96875 236.304688 100.847656 236.363281 100.726562 236.429688 C 100.703125 236.40625 100.679688 236.378906 100.65625 236.351562 C 100.886719 236.121094 101.105469 235.875 101.347656 235.65625 C 102.113281 234.960938 102.882812 234.269531 103.667969 233.597656 C 103.835938 233.453125 104.070312 233.347656 104.292969 233.3125 C 105.703125 233.082031 107 232.558594 108.234375 231.855469 C 109.363281 231.210938 110.476562 230.539062 111.464844 229.683594 C 112.128906 229.109375 112.75 228.492188 113.28125 227.785156 C 113.414062 227.605469 113.535156 227.449219 113.800781 227.476562 C 113.929688 227.488281 114.074219 227.410156 114.203125 227.363281 C 117.488281 226.183594 120.777344 225.015625 124.050781 223.808594 C 124.644531 223.59375 125.230469 223.339844 125.828125 223.117188 C 126.0625 223.035156 126.308594 222.933594 126.492188 222.773438 C 127.109375 222.242188 127.859375 221.988281 128.597656 221.707031 C 128.976562 221.558594 129.316406 221.308594 129.699219 221.1875 C 130.082031 221.070312 130.496094 221.082031 130.894531 221.003906 C 131.691406 220.839844 132.480469 220.640625 133.277344 220.484375 C 133.578125 220.425781 133.898438 220.472656 134.203125 220.421875 C 134.835938 220.316406 135.460938 220.160156 136.09375 220.058594 C 137.21875 219.875 138.347656 219.714844 139.46875 219.546875 C 139.839844 219.996094 139.847656 219.96875 140.382812 219.820312 C 141.105469 219.621094 141.839844 219.453125 142.578125 219.320312 C 144.070312 219.054688 145.570312 218.828125 147.066406 218.554688 C 147.542969 218.46875 147.976562 218.402344 148.46875 218.550781 C 149.125 218.742188 149.816406 218.816406 150.496094 218.929688 C 151.46875 219.085938 152.4375 218.992188 153.394531 218.824219 C 153.863281 218.738281 154.320312 218.539062 154.765625 218.347656 C 155.117188 218.191406 155.46875 218.109375 155.855469 218.132812 C 156.359375 218.164062 156.875 218.183594 157.386719 218.230469 Z M 130.363281 204.023438 C 130.210938 203.648438 130.332031 203.289062 130.394531 202.921875 C 130.589844 201.746094 130.261719 200.660156 129.816406 199.59375 C 129.710938 199.339844 129.648438 199.066406 129.566406 198.796875 C 129.480469 198.511719 129.410156 198.226562 129.304688 197.953125 C 128.566406 196.007812 127.722656 194.101562 127.203125 192.078125 C 126.84375 190.664062 126.507812 189.242188 126.386719 187.796875 C 126.296875 186.660156 126.328125 185.511719 126.386719 184.367188 C 126.445312 183.117188 126.5625 181.867188 126.710938 180.625 C 126.890625 179.148438 127.128906 177.683594 127.339844 176.210938 C 127.375 175.949219 127.398438 175.6875 127.4375 175.355469 C 128.871094 176.519531 130.261719 177.648438 131.617188 178.75 C 131.378906 179.550781 131.105469 180.285156 130.941406 181.046875 C 130.792969 181.746094 130.710938 182.46875 130.6875 183.183594 C 130.605469 185.746094 130.878906 188.285156 131.371094 190.792969 C 131.785156 192.898438 132.253906 194.988281 132.667969 197.089844 C 133.113281 199.351562 133.191406 201.625 132.859375 203.910156 C 132.695312 205.074219 132.628906 206.25 132.453125 207.410156 C 132.011719 210.367188 131.527344 213.324219 130.472656 216.136719 C 129.722656 218.136719 128.625 219.929688 126.984375 221.355469 C 126.132812 222.097656 125.1875 222.585938 124.042969 222.683594 C 123.476562 222.730469 122.917969 222.710938 122.378906 222.503906 C 120.175781 221.675781 118.914062 219.457031 118.832031 217.699219 C 118.769531 216.394531 119.230469 215.265625 120.121094 214.328125 C 120.972656 213.4375 122.019531 212.902344 123.246094 212.757812 C 124.363281 212.628906 125.703125 213.394531 126.171875 214.425781 C 126.257812 214.621094 126.324219 214.839844 126.332031 215.054688 C 126.359375 215.703125 126.289062 216.335938 125.882812 216.878906 C 125.628906 217.21875 125.390625 217.570312 125.121094 217.890625 C 124.703125 218.382812 124.179688 218.535156 123.558594 218.316406 C 123.230469 218.199219 123.015625 218.308594 122.9375 218.601562 C 122.863281 218.886719 123 219.140625 123.308594 219.203125 C 124.242188 219.390625 125.085938 219.238281 125.75 218.488281 C 126.476562 217.671875 127.007812 216.742188 127.414062 215.730469 C 127.875 214.578125 128.292969 213.421875 128.585938 212.21875 C 128.917969 210.835938 129.351562 209.472656 129.667969 208.089844 C 129.953125 206.855469 130.136719 205.597656 130.359375 204.355469 C 130.371094 204.242188 130.402344 204.113281 130.363281 204.023438 Z M 136.269531 190.125 C 136.449219 192.386719 136.851562 194.621094 137.195312 196.867188 C 137.566406 199.265625 137.84375 201.679688 137.730469 204.117188 C 137.574219 207.414062 136.992188 210.609375 135.578125 213.625 C 134.929688 215.007812 134.125 216.289062 133.117188 217.445312 C 132.066406 218.652344 130.726562 219.671875 129.058594 220.527344 C 129.085938 220.441406 129.09375 220.386719 129.121094 220.347656 C 130.773438 218.207031 131.675781 215.742188 132.261719 213.132812 C 132.703125 211.175781 133.089844 209.214844 133.34375 207.222656 C 133.464844 206.261719 133.5625 205.296875 133.671875 204.332031 C 133.738281 203.710938 133.832031 203.089844 133.875 202.46875 C 134.054688 199.894531 133.679688 197.378906 133.074219 194.886719 C 132.554688 192.742188 132.144531 190.570312 131.847656 188.386719 C 131.617188 186.691406 131.46875 184.992188 131.53125 183.28125 C 131.574219 182.039062 131.753906 180.820312 132.25 179.664062 C 132.289062 179.578125 132.332031 179.503906 132.390625 179.382812 C 133.855469 180.574219 135.296875 181.742188 136.71875 182.898438 C 136.589844 183.628906 136.445312 184.316406 136.351562 185.015625 C 136.136719 186.710938 136.132812 188.417969 136.269531 190.125 Z M 143.296875 201.453125 C 143.261719 199.699219 143.136719 197.945312 143.171875 196.195312 C 143.207031 194.300781 143.375 192.414062 143.496094 190.527344 C 143.539062 189.902344 143.605469 189.28125 143.667969 188.566406 C 144.863281 189.46875 145.953125 190.414062 147.101562 191.320312 C 146.734375 191.875 146.796875 192.496094 146.765625 193.09375 C 146.679688 194.789062 146.820312 196.472656 147.074219 198.148438 C 147.347656 199.941406 147.6875 201.726562 148.019531 203.511719 C 148.785156 207.675781 147.820312 211.429688 145.332031 214.808594 C 144.402344 216.074219 143.179688 217.03125 141.835938 217.832031 C 141.027344 218.3125 140.132812 218.539062 139.222656 218.710938 C 138.46875 218.851562 137.707031 218.933594 136.949219 219.042969 C 136.890625 219.054688 136.832031 219.042969 136.6875 219.042969 C 136.804688 218.945312 136.855469 218.890625 136.914062 218.851562 C 139.691406 216.945312 141.332031 214.257812 142.238281 211.078125 C 143.140625 207.925781 143.363281 204.707031 143.296875 201.453125 Z M 142.417969 193.257812 C 142.253906 195.199219 142.300781 197.140625 142.34375 199.082031 C 142.382812 200.914062 142.449219 202.75 142.390625 204.578125 C 142.304688 207.15625 141.894531 209.691406 140.996094 212.117188 C 140.179688 214.3125 138.925781 216.214844 137.058594 217.683594 C 135.492188 218.917969 133.6875 219.570312 131.734375 219.964844 C 131.769531 219.898438 131.78125 219.847656 131.8125 219.824219 C 133.621094 218.476562 134.929688 216.71875 135.980469 214.75 C 137.105469 212.640625 137.773438 210.382812 138.179688 208.042969 C 138.59375 205.671875 138.742188 203.277344 138.53125 200.882812 C 138.375 199.09375 138.113281 197.308594 137.847656 195.527344 C 137.449219 192.832031 136.984375 190.144531 137.046875 187.40625 C 137.078125 186 137.222656 184.644531 137.503906 183.5625 C 137.65625 183.671875 137.769531 183.75 137.875 183.839844 C 139.417969 185.089844 140.960938 186.34375 142.515625 187.585938 C 142.761719 187.78125 142.855469 187.980469 142.824219 188.300781 C 142.671875 189.949219 142.554688 191.601562 142.417969 193.257812 Z M 129.027344 207.050781 C 128.683594 206.792969 128.382812 206.5625 128.066406 206.324219 C 128.480469 205.972656 128.886719 205.628906 129.367188 205.21875 C 129.25 205.859375 129.144531 206.421875 129.027344 207.050781 Z M 128.632812 208.058594 C 128.691406 208.152344 128.730469 208.292969 128.707031 208.402344 C 128.585938 208.976562 128.441406 209.550781 128.289062 210.1875 C 128.195312 210.074219 128.148438 210.015625 128.105469 209.953125 C 127.425781 208.878906 126.398438 208.359375 125.175781 208.242188 C 123.335938 208.0625 121.59375 208.441406 120 209.390625 C 119.5625 209.652344 119.195312 210.027344 118.796875 210.351562 C 118.703125 210.429688 118.625 210.527344 118.460938 210.695312 C 118.542969 209.234375 118.664062 207.882812 119.042969 206.523438 C 119.203125 206.585938 119.34375 206.640625 119.480469 206.699219 C 120.292969 207.019531 121.105469 207.34375 121.980469 207.480469 C 123.261719 207.679688 124.503906 207.441406 125.742188 207.160156 C 126 207.097656 126.257812 207.03125 126.507812 206.941406 C 126.824219 206.824219 127.113281 206.871094 127.414062 207 C 127.9375 207.222656 128.332031 207.589844 128.632812 208.058594 Z M 121.433594 209.628906 C 122.738281 209.128906 124.089844 208.90625 125.484375 209.167969 C 126.082031 209.273438 126.613281 209.53125 127.039062 209.980469 C 127.347656 210.300781 127.570312 210.671875 127.621094 211.128906 C 127.640625 211.3125 127.714844 211.488281 127.742188 211.667969 C 127.757812 211.769531 127.75 211.882812 127.714844 211.980469 C 127.558594 212.421875 127.398438 212.863281 127.226562 213.300781 C 127.042969 213.765625 127.03125 213.765625 127.082031 214.195312 C 126.847656 213.863281 126.675781 213.5625 126.449219 213.308594 C 125.378906 212.113281 124.070312 211.617188 122.480469 212.011719 C 120.207031 212.578125 118.363281 214.359375 118.015625 216.742188 C 117.886719 217.644531 117.980469 218.527344 118.308594 219.375 C 119.042969 221.28125 120.308594 222.675781 122.269531 223.375 C 122.296875 223.382812 122.316406 223.410156 122.378906 223.457031 C 122.292969 223.503906 122.226562 223.554688 122.152344 223.582031 C 121.109375 223.960938 120.0625 224.332031 119.019531 224.714844 C 118.828125 224.785156 118.671875 224.773438 118.480469 224.703125 C 117.816406 224.460938 117.265625 224.0625 116.804688 223.53125 C 116.519531 223.207031 116.351562 222.820312 116.292969 222.394531 C 116.273438 222.246094 116.316406 222.089844 116.363281 221.941406 C 116.777344 220.546875 117.230469 219.164062 117.601562 217.761719 C 117.964844 216.382812 118.066406 214.960938 118.1875 213.539062 C 118.203125 213.34375 118.300781 213.15625 118.351562 212.964844 C 118.773438 211.296875 119.855469 210.234375 121.433594 209.628906 Z M 117.554688 225.238281 C 116.433594 225.644531 115.402344 226.015625 114.273438 226.421875 C 114.796875 225.429688 115.273438 224.53125 115.777344 223.582031 C 116.207031 224.269531 116.789062 224.785156 117.554688 225.238281 Z M 117.871094 207.914062 C 117.757812 208.753906 117.675781 209.59375 117.609375 210.4375 C 117.316406 214.175781 116.769531 217.867188 115.613281 221.449219 C 115.042969 223.222656 114.222656 224.867188 113.203125 226.417969 C 112.480469 227.515625 111.625 228.488281 110.585938 229.289062 C 109.167969 230.386719 107.644531 231.304688 105.976562 231.976562 C 105.484375 232.175781 104.972656 232.316406 104.417969 232.308594 C 104.738281 231.949219 105.050781 231.582031 105.382812 231.230469 C 107.34375 229.128906 108.546875 226.628906 109.320312 223.894531 C 109.832031 222.082031 110.1875 220.242188 110.449219 218.382812 C 110.902344 215.183594 111.472656 212.015625 112.507812 208.949219 C 112.988281 207.53125 113.628906 206.195312 114.472656 204.960938 C 114.65625 204.691406 114.875 204.449219 115.058594 204.214844 C 116.128906 204.875 117.152344 205.503906 118.207031 206.152344 C 118.097656 206.722656 117.953125 207.3125 117.871094 207.914062 Z M 153.292969 197.648438 C 154.25 199.019531 155.242188 200.371094 156.15625 201.777344 C 156.957031 203.011719 157.617188 204.332031 157.96875 205.78125 C 158.535156 208.148438 158.617188 210.515625 157.847656 212.863281 C 157.425781 214.144531 156.726562 215.273438 155.871094 216.308594 C 155.449219 216.820312 154.890625 217.167969 154.300781 217.472656 C 152.949219 218.167969 151.546875 218.210938 150.101562 217.875 C 150.058594 217.863281 150.027344 217.820312 149.996094 217.792969 C 151.484375 216.457031 152.378906 214.761719 153.03125 212.910156 C 153.734375 210.933594 154.121094 208.902344 154.183594 206.804688 C 154.265625 204.117188 154.035156 201.460938 153.457031 198.835938 C 153.367188 198.429688 153.273438 198.023438 153.175781 197.59375 C 153.238281 197.625 153.277344 197.625 153.292969 197.648438 Z M 152.640625 199.109375 C 153.222656 201.804688 153.441406 204.527344 153.308594 207.277344 C 153.214844 209.164062 152.84375 211.007812 152.160156 212.769531 C 151.867188 213.523438 151.480469 214.25 151.0625 214.945312 C 150.453125 215.960938 149.492188 216.597656 148.445312 217.085938 C 147.261719 217.636719 145.996094 217.910156 144.703125 218.046875 C 144.195312 218.101562 143.683594 218.105469 143.175781 218.136719 C 143.171875 218.101562 143.164062 218.0625 143.160156 218.027344 C 143.574219 217.691406 143.996094 217.371094 144.402344 217.023438 C 145.960938 215.699219 147.058594 214.042969 147.859375 212.171875 C 148.613281 210.410156 149.074219 208.589844 149.132812 206.667969 C 149.171875 205.378906 148.984375 204.109375 148.769531 202.84375 C 148.449219 200.980469 148.097656 199.117188 147.828125 197.242188 C 147.585938 195.585938 147.519531 193.90625 147.675781 192.226562 C 147.683594 192.136719 147.710938 192.050781 147.734375 191.914062 C 147.851562 191.980469 147.953125 192.015625 148.027344 192.078125 C 148.84375 192.734375 149.675781 193.378906 150.464844 194.066406 C 150.921875 194.46875 151.292969 194.960938 151.546875 195.523438 C 152.074219 196.671875 152.375 197.886719 152.640625 199.109375 Z M 151.789062 194.207031 C 151.71875 194.144531 151.640625 194.070312 151.542969 193.976562 C 151.644531 193.9375 151.71875 193.90625 151.855469 193.851562 C 151.234375 193.6875 150.855469 193.253906 150.425781 192.90625 C 146.289062 189.558594 142.152344 186.207031 138.039062 182.839844 C 137.28125 182.21875 136.496094 181.636719 135.75 181.003906 C 135.011719 180.375 134.242188 179.777344 133.496094 179.160156 C 133.222656 178.933594 132.984375 178.660156 132.707031 178.429688 C 132.503906 178.261719 132.257812 178.152344 132.054688 177.988281 C 130.21875 176.503906 128.382812 175.015625 126.550781 173.523438 C 126.296875 173.316406 126.0625 173.144531 125.707031 173.277344 C 125.589844 173.320312 125.429688 173.265625 125.289062 173.242188 C 123.210938 172.875 121.128906 172.503906 119.046875 172.144531 C 118.855469 172.109375 118.742188 172.042969 118.664062 171.863281 C 118.089844 170.542969 117.507812 169.226562 116.929688 167.90625 C 116.90625 167.851562 116.898438 167.792969 116.867188 167.683594 C 117.398438 167.789062 117.886719 167.886719 118.371094 167.988281 C 121.363281 168.589844 124.355469 169.195312 127.339844 169.8125 C 127.542969 169.851562 127.75 169.96875 127.910156 170.105469 C 133.234375 174.472656 138.550781 178.84375 143.871094 183.214844 C 147.085938 185.855469 150.304688 188.496094 153.523438 191.136719 C 153.652344 191.246094 153.78125 191.355469 153.902344 191.460938 C 153.644531 192.175781 152.363281 193.835938 151.789062 194.207031 Z M 117.023438 170.265625 C 117.003906 170.285156 116.984375 170.304688 116.960938 170.320312 C 116.902344 170.269531 116.835938 170.226562 116.78125 170.171875 C 115.839844 169.285156 114.707031 168.921875 113.433594 168.941406 C 112.257812 168.960938 111.097656 169.140625 109.941406 169.355469 C 108.511719 169.621094 107.085938 169.917969 105.660156 170.195312 C 105.511719 170.226562 105.363281 170.242188 105.207031 170.261719 C 105.230469 169.519531 105.355469 169.324219 105.984375 169.125 C 107.199219 168.742188 108.445312 168.515625 109.707031 168.378906 C 110.796875 168.261719 111.882812 168.113281 112.972656 168.039062 C 113.878906 167.976562 114.785156 168.003906 115.695312 167.992188 C 115.871094 167.988281 116.035156 168.019531 116.117188 168.214844 C 116.417969 168.898438 116.722656 169.582031 117.023438 170.265625 Z M 136.867188 147.414062 C 137.253906 146.777344 137.542969 146.074219 137.792969 145.371094 C 138.039062 144.683594 138.21875 143.964844 138.371094 143.246094 C 138.789062 141.261719 138.699219 139.257812 138.511719 137.257812 C 138.308594 135.105469 138.039062 132.960938 137.886719 130.808594 C 137.640625 127.164062 138.546875 123.835938 140.769531 120.886719 C 142.125 119.078125 143.71875 117.519531 145.519531 116.171875 C 146.234375 115.632812 147.015625 115.203125 147.839844 114.851562 C 147.910156 114.824219 147.980469 114.808594 148.125 114.761719 C 148.019531 114.945312 147.953125 115.0625 147.890625 115.175781 C 147.304688 116.335938 146.6875 117.480469 146.144531 118.65625 C 145.664062 119.6875 145.480469 120.808594 145.359375 121.933594 C 145.019531 125.039062 145.277344 128.097656 146.292969 131.0625 C 146.683594 132.195312 147.222656 133.285156 147.753906 134.363281 C 148.28125 135.425781 148.875 136.460938 149.464844 137.496094 C 150.777344 139.789062 151.640625 142.238281 152.046875 144.851562 C 152.234375 146.070312 152.175781 147.28125 152.054688 148.503906 C 151.867188 150.386719 151.34375 152.183594 150.765625 153.972656 C 150.664062 154.28125 150.625 154.609375 150.585938 154.933594 C 150.535156 155.339844 150.488281 155.746094 150.121094 156.019531 C 150.054688 156.070312 150.011719 156.171875 149.980469 156.257812 C 149.574219 157.363281 149.003906 158.390625 148.414062 159.402344 C 148.25 159.6875 148.113281 159.988281 147.9375 160.332031 C 147.785156 160.34375 147.585938 160.367188 147.386719 160.371094 C 144.867188 160.449219 142.472656 159.914062 140.179688 158.902344 C 138.371094 158.101562 136.738281 157.042969 135.355469 155.621094 C 134.652344 154.898438 134.054688 154.101562 133.589844 153.199219 C 133.457031 152.949219 133.445312 152.734375 133.597656 152.503906 C 134.117188 151.703125 134.628906 150.894531 135.144531 150.09375 C 135.332031 149.804688 135.480469 149.457031 135.738281 149.253906 C 136.351562 148.769531 136.496094 148.027344 136.867188 147.414062 Z M 142.46875 163.09375 C 137.597656 161.757812 133.878906 158.910156 131.371094 154.511719 C 130.988281 153.839844 131.011719 153.824219 131.371094 153.160156 C 131.609375 152.71875 131.84375 152.277344 132.109375 151.785156 C 132.171875 151.890625 132.21875 151.945312 132.234375 152.007812 C 132.640625 153.601562 133.515625 154.925781 134.628906 156.097656 C 136.644531 158.214844 139.113281 159.589844 141.875 160.457031 C 143.742188 161.042969 145.660156 161.308594 147.621094 161.21875 C 147.976562 161.203125 148.332031 161.160156 148.792969 161.121094 C 148.480469 161.734375 148.203125 162.277344 147.917969 162.8125 C 147.882812 162.878906 147.773438 162.917969 147.695312 162.949219 C 145.964844 163.5625 144.207031 163.570312 142.46875 163.09375 Z M 147.261719 164.039062 C 147.214844 164.15625 147.179688 164.265625 147.128906 164.367188 C 146.816406 164.980469 146.488281 165.585938 146.195312 166.210938 C 146.082031 166.441406 145.917969 166.566406 145.691406 166.660156 C 144.464844 167.160156 143.191406 167.359375 141.875 167.273438 C 138.359375 167.042969 135.417969 165.535156 132.90625 163.128906 C 131.324219 161.613281 130.136719 159.824219 129.492188 157.703125 C 129.445312 157.554688 129.390625 157.40625 129.371094 157.253906 C 129.355469 157.121094 129.34375 156.960938 129.402344 156.847656 C 129.75 156.167969 130.121094 155.5 130.503906 154.789062 C 130.585938 154.910156 130.636719 154.980469 130.679688 155.058594 C 132.414062 158.148438 134.902344 160.472656 137.953125 162.214844 C 139.511719 163.105469 141.167969 163.753906 142.941406 164.078125 C 144.277344 164.324219 145.613281 164.375 146.945312 164.058594 C 147.007812 164.042969 147.070312 164.035156 147.128906 164.027344 C 147.160156 164.019531 147.191406 164.03125 147.261719 164.039062 Z M 127.804688 144.410156 C 128.320312 142.3125 129.234375 140.378906 130.300781 138.511719 C 130.582031 138.023438 130.878906 137.546875 131.175781 137.066406 C 131.246094 136.953125 131.335938 136.847656 131.414062 136.738281 C 131.441406 136.746094 131.472656 136.761719 131.5 136.769531 C 131.5 137.503906 131.46875 138.238281 131.507812 138.96875 C 131.664062 142.144531 133.011719 144.765625 135.253906 146.972656 C 135.449219 147.164062 135.589844 147.40625 135.753906 147.621094 C 135.695312 147.722656 135.652344 147.785156 135.617188 147.859375 C 135.507812 148.101562 135.324219 148.167969 135.058594 148.167969 C 134.105469 148.175781 133.148438 148.164062 132.199219 148.246094 C 130.828125 148.367188 129.46875 148.570312 128.039062 148.746094 C 127.746094 148.394531 127.625 147.898438 127.554688 147.386719 C 127.414062 146.375 127.566406 145.386719 127.804688 144.410156 Z M 108.390625 159.984375 C 112.414062 156.566406 116.792969 153.714844 121.6875 151.695312 C 124.40625 150.574219 127.203125 149.75 130.113281 149.320312 C 131.585938 149.101562 133.070312 148.984375 134.5625 149.011719 C 134.621094 149.011719 134.683594 149.023438 134.820312 149.039062 C 134.222656 149.929688 133.664062 150.757812 133.085938 151.617188 C 133.042969 151.554688 133.007812 151.523438 133.007812 151.496094 C 133.019531 150.976562 132.644531 150.789062 132.253906 150.617188 C 132.039062 150.523438 131.855469 150.558594 131.707031 150.742188 C 131.648438 150.816406 131.605469 150.902344 131.5625 150.984375 C 130.554688 152.859375 129.550781 154.734375 128.535156 156.609375 C 128.390625 156.875 128.371094 157.117188 128.492188 157.410156 C 128.664062 157.824219 128.753906 158.277344 128.917969 158.699219 C 129.90625 161.273438 131.574219 163.328125 133.738281 165 C 135.664062 166.488281 137.808594 167.511719 140.214844 167.949219 C 142.113281 168.296875 143.988281 168.238281 145.808594 167.535156 C 145.953125 167.480469 146.089844 167.402344 146.242188 167.351562 C 146.578125 167.238281 146.761719 166.996094 146.917969 166.6875 C 147.835938 164.875 148.769531 163.066406 149.695312 161.253906 C 149.738281 161.167969 149.78125 161.089844 149.824219 161 C 150.050781 160.507812 149.835938 160.171875 149.285156 160.164062 C 149.207031 160.160156 149.128906 160.171875 149.015625 160.183594 C 149.632812 158.964844 150.238281 157.777344 150.867188 156.539062 C 150.964844 156.660156 151.082031 156.789062 151.1875 156.929688 C 152.988281 159.265625 154.242188 161.878906 155.082031 164.691406 C 155.699219 166.753906 156.066406 168.863281 156.25 171.007812 C 156.445312 173.277344 156.414062 175.546875 156.210938 177.8125 C 155.960938 180.589844 155.441406 183.328125 154.710938 186.019531 C 154.683594 186.121094 154.640625 186.21875 154.582031 186.363281 C 153.816406 185.714844 153.078125 185.097656 152.324219 184.460938 C 152.390625 184.34375 152.4375 184.25 152.496094 184.15625 C 153.4375 182.550781 154.378906 180.945312 155.320312 179.335938 C 155.394531 179.210938 155.457031 179.089844 155.511719 178.957031 C 155.613281 178.703125 155.554688 178.492188 155.363281 178.382812 C 155.164062 178.261719 154.929688 178.335938 154.765625 178.578125 C 154.675781 178.707031 154.613281 178.851562 154.535156 178.984375 C 153.699219 180.421875 152.867188 181.855469 152.03125 183.289062 C 151.921875 183.472656 151.792969 183.65625 151.644531 183.886719 C 150.527344 182.945312 149.429688 182.023438 148.296875 181.070312 C 148.375 180.929688 148.449219 180.792969 148.523438 180.664062 C 149.726562 178.574219 150.933594 176.488281 152.140625 174.402344 C 152.171875 174.351562 152.207031 174.296875 152.234375 174.242188 C 152.324219 174.046875 152.292969 173.875 152.128906 173.734375 C 151.972656 173.601562 151.738281 173.597656 151.578125 173.765625 C 151.449219 173.894531 151.347656 174.058594 151.253906 174.222656 C 150.140625 176.144531 149.03125 178.074219 147.921875 179.996094 C 147.835938 180.148438 147.742188 180.289062 147.617188 180.496094 C 146.273438 179.367188 144.953125 178.257812 143.601562 177.113281 C 143.96875 176.507812 144.308594 175.929688 144.664062 175.363281 C 145.765625 173.617188 146.871094 171.867188 147.96875 170.121094 C 148.078125 169.949219 148.1875 169.773438 148.269531 169.589844 C 148.371094 169.375 148.304688 169.167969 148.128906 169.050781 C 147.957031 168.941406 147.742188 168.964844 147.578125 169.140625 C 147.496094 169.230469 147.4375 169.34375 147.367188 169.449219 C 145.929688 171.746094 144.492188 174.042969 143.058594 176.339844 C 143.023438 176.390625 142.984375 176.4375 142.914062 176.535156 C 141.8125 175.609375 140.714844 174.6875 139.589844 173.742188 C 139.894531 173.199219 140.164062 172.667969 140.46875 172.160156 C 140.8125 171.585938 141.191406 171.023438 141.550781 170.457031 C 141.65625 170.285156 141.765625 170.105469 141.835938 169.917969 C 141.933594 169.664062 141.855469 169.4375 141.671875 169.339844 C 141.46875 169.230469 141.226562 169.308594 141.074219 169.554688 C 140.726562 170.09375 140.386719 170.636719 140.054688 171.1875 C 139.714844 171.75 139.398438 172.328125 139.066406 172.894531 C 139.019531 172.972656 138.964844 173.046875 138.890625 173.152344 C 138.039062 172.433594 137.203125 171.730469 136.332031 170.996094 C 136.589844 170.523438 136.835938 170.058594 137.097656 169.601562 C 137.300781 169.25 137.527344 168.910156 137.738281 168.5625 C 137.800781 168.457031 137.863281 168.34375 137.890625 168.222656 C 137.9375 168.019531 137.859375 167.847656 137.667969 167.757812 C 137.492188 167.675781 137.328125 167.710938 137.195312 167.851562 C 137.132812 167.917969 137.078125 168 137.03125 168.078125 C 136.617188 168.777344 136.203125 169.476562 135.789062 170.179688 C 135.753906 170.242188 135.710938 170.304688 135.644531 170.394531 C 135.464844 170.257812 135.304688 170.136719 135.152344 170.011719 C 133.378906 168.519531 131.609375 167.027344 129.839844 165.53125 C 129.613281 165.335938 129.402344 165.179688 129.085938 165.277344 C 129.027344 165.296875 128.957031 165.289062 128.898438 165.277344 C 128.289062 165.128906 127.6875 164.980469 127.035156 164.820312 C 127.113281 164.679688 127.167969 164.570312 127.230469 164.472656 C 127.839844 163.507812 128.457031 162.542969 129.0625 161.578125 C 129.152344 161.433594 129.238281 161.28125 129.292969 161.121094 C 129.363281 160.90625 129.257812 160.6875 129.070312 160.609375 C 128.875 160.527344 128.699219 160.570312 128.570312 160.742188 C 128.476562 160.867188 128.410156 161.011719 128.324219 161.140625 C 127.746094 162.054688 127.171875 162.96875 126.585938 163.878906 C 126.4375 164.109375 126.257812 164.328125 126.066406 164.585938 C 124.847656 164.285156 123.625 163.988281 122.363281 163.679688 C 122.457031 163.527344 122.519531 163.421875 122.585938 163.316406 C 123.480469 161.886719 124.378906 160.453125 125.277344 159.019531 C 125.367188 158.871094 125.453125 158.71875 125.5 158.558594 C 125.574219 158.316406 125.488281 158.128906 125.300781 158.039062 C 125.113281 157.949219 124.910156 157.996094 124.765625 158.191406 C 124.65625 158.347656 124.578125 158.515625 124.476562 158.675781 C 123.488281 160.269531 122.492188 161.859375 121.496094 163.46875 C 120.4375 163.207031 119.425781 162.960938 118.351562 162.699219 C 118.847656 161.898438 119.292969 161.125 119.789062 160.386719 C 120.546875 159.257812 121.34375 158.148438 122.125 157.03125 C 122.214844 156.90625 122.308594 156.777344 122.363281 156.632812 C 122.433594 156.441406 122.378906 156.261719 122.195312 156.140625 C 122.027344 156.03125 121.867188 156.058594 121.714844 156.175781 C 121.644531 156.230469 121.582031 156.308594 121.527344 156.382812 C 120.273438 158.179688 118.964844 159.941406 117.863281 161.84375 C 117.757812 162.03125 117.667969 162.230469 117.539062 162.496094 C 116.589844 162.265625 115.59375 162.027344 114.578125 161.777344 C 114.625 161.679688 114.644531 161.625 114.679688 161.574219 C 115.910156 159.894531 117.140625 158.210938 118.378906 156.539062 C 118.667969 156.148438 119 155.789062 119.308594 155.417969 C 119.410156 155.296875 119.507812 155.171875 119.585938 155.039062 C 119.695312 154.851562 119.652344 154.675781 119.496094 154.527344 C 119.34375 154.390625 119.121094 154.394531 118.9375 154.542969 C 118.867188 154.605469 118.8125 154.683594 118.75 154.753906 C 117.699219 155.921875 116.785156 157.191406 115.878906 158.46875 C 115.152344 159.488281 114.402344 160.492188 113.632812 161.539062 C 111.835938 161.101562 110.03125 160.660156 108.183594 160.207031 C 108.285156 160.09375 108.332031 160.03125 108.390625 159.984375 Z M 103.398438 163.253906 C 104.171875 162.433594 104.957031 161.628906 105.726562 160.804688 C 105.925781 160.59375 106.113281 160.570312 106.386719 160.640625 C 111.582031 161.917969 116.777344 163.1875 121.976562 164.457031 C 124.273438 165.015625 126.566406 165.585938 128.863281 166.128906 C 129.226562 166.214844 129.519531 166.367188 129.800781 166.605469 C 135.324219 171.265625 140.851562 175.917969 146.378906 180.574219 C 149.285156 183.023438 152.191406 185.46875 155.101562 187.917969 C 155.195312 188 155.285156 188.085938 155.367188 188.164062 C 155.101562 189.335938 154.777344 190.195312 154.398438 190.738281 C 153.78125 190.234375 153.164062 189.734375 152.546875 189.230469 C 144.460938 182.585938 136.367188 175.941406 128.289062 169.289062 C 127.996094 169.046875 127.707031 168.949219 127.324219 168.910156 C 126.628906 168.839844 125.941406 168.648438 125.253906 168.511719 C 120.101562 167.464844 114.949219 166.414062 109.796875 165.367188 C 107.589844 164.921875 105.378906 164.476562 103.171875 164.027344 C 103.082031 164.007812 102.996094 163.972656 102.855469 163.925781 C 103.054688 163.679688 103.210938 163.453125 103.398438 163.253906 Z M 100.0625 168.804688 C 100.054688 168.082031 101.214844 165.929688 102.265625 164.714844 C 106.054688 165.484375 109.867188 166.257812 113.679688 167.035156 C 113.679688 167.0625 113.679688 167.089844 113.679688 167.117188 C 113.433594 167.132812 113.183594 167.144531 112.9375 167.164062 C 112.6875 167.183594 112.4375 167.207031 112.191406 167.238281 C 110.292969 167.464844 108.382812 167.582031 106.527344 168.082031 C 106.332031 168.132812 106.132812 168.183594 105.9375 168.242188 C 104.988281 168.53125 104.828125 168.667969 104.375 169.570312 C 102.917969 169.308594 101.492188 169.058594 100.0625 168.804688 Z M 92.582031 185.207031 C 92.558594 184.273438 92.859375 183.417969 93.191406 182.570312 C 93.855469 180.882812 94.820312 179.359375 95.714844 177.800781 C 96.8125 175.898438 98.082031 174.109375 99.453125 172.390625 C 99.910156 171.816406 100.339844 171.21875 100.765625 170.617188 C 100.910156 170.410156 101 170.160156 101.140625 169.867188 C 102.105469 170.035156 103.132812 170.214844 104.1875 170.398438 C 104.167969 170.582031 104.132812 170.726562 104.128906 170.878906 C 104.121094 171.21875 104.347656 171.371094 104.683594 171.300781 C 106.382812 170.941406 108.078125 170.566406 109.785156 170.253906 C 110.859375 170.054688 111.949219 169.929688 113.039062 169.816406 C 114.519531 169.660156 115.742188 170.152344 116.695312 171.316406 C 117.222656 171.960938 117.734375 172.609375 118.125 173.347656 C 118.148438 173.386719 118.171875 173.433594 118.195312 173.472656 C 118.402344 173.832031 118.582031 173.96875 118.796875 173.878906 C 119.082031 173.765625 119.226562 173.535156 119.234375 173.222656 C 119.234375 173.179688 119.242188 173.136719 119.25 173.054688 C 119.890625 173.164062 120.519531 173.269531 121.148438 173.382812 C 122.660156 173.648438 124.167969 173.921875 125.683594 174.175781 C 125.941406 174.21875 126.15625 174.300781 126.351562 174.472656 C 126.570312 174.671875 126.804688 174.851562 127.050781 175.050781 C 126.894531 175.136719 126.710938 175.179688 126.632812 175.296875 C 126.546875 175.425781 126.554688 175.617188 126.527344 175.78125 C 126.425781 176.367188 126.304688 176.949219 126.230469 177.539062 C 126.039062 179.046875 125.847656 180.554688 125.699219 182.0625 C 125.558594 183.542969 125.453125 185.027344 125.457031 186.519531 C 125.460938 188.242188 125.808594 189.910156 126.1875 191.570312 C 126.609375 193.40625 127.246094 195.175781 127.972656 196.90625 C 128.074219 197.152344 128.167969 197.402344 128.261719 197.652344 C 128.273438 197.675781 128.257812 197.710938 128.257812 197.792969 C 126.6875 196.910156 125.132812 196.824219 123.738281 198.054688 C 122.421875 199.214844 121.800781 200.652344 122.441406 202.515625 C 121.6875 202.15625 121.078125 201.785156 120.5625 201.28125 C 119.714844 200.445312 118.875 199.601562 118.0625 198.738281 C 116.601562 197.1875 115.160156 195.617188 113.710938 194.054688 C 113.601562 193.941406 113.496094 193.824219 113.417969 193.734375 C 113.574219 193.488281 113.738281 193.269531 113.871094 193.027344 C 114.738281 191.46875 115.578125 189.898438 116.464844 188.347656 C 116.757812 187.832031 117.140625 187.367188 117.496094 186.890625 C 117.773438 186.519531 118.140625 186.273438 118.621094 186.195312 C 120.054688 185.964844 121.492188 185.71875 122.925781 185.472656 C 123.328125 185.40625 123.726562 185.324219 124.121094 185.234375 C 124.257812 185.203125 124.394531 185.144531 124.503906 185.058594 C 124.667969 184.929688 124.707031 184.746094 124.621094 184.550781 C 124.539062 184.378906 124.386719 184.304688 124.195312 184.328125 C 124.179688 184.332031 124.164062 184.332031 124.148438 184.332031 C 122.585938 184.761719 120.957031 184.78125 119.386719 185.15625 C 119.128906 185.21875 118.867188 185.273438 118.601562 185.308594 C 117.769531 185.414062 117.148438 185.871094 116.679688 186.53125 C 116.199219 187.207031 115.710938 187.882812 115.304688 188.601562 C 114.523438 189.972656 113.796875 191.382812 113.046875 192.773438 C 112.988281 192.882812 112.929688 192.992188 112.859375 193.125 C 112.761719 193.039062 112.679688 192.972656 112.605469 192.902344 C 110.875 191.230469 109.019531 189.71875 107.070312 188.316406 C 106.601562 187.976562 106.113281 187.660156 105.613281 187.375 C 105.125 187.097656 104.613281 186.867188 104.066406 186.597656 C 105.34375 185.742188 105.628906 185.292969 105.683594 184.015625 C 105.769531 184.074219 105.855469 184.105469 105.90625 184.164062 C 106.585938 184.984375 107.261719 185.804688 107.9375 186.625 C 108.027344 186.734375 108.105469 186.855469 108.207031 186.945312 C 108.347656 187.070312 108.515625 187.089844 108.683594 186.984375 C 108.851562 186.875 108.914062 186.714844 108.859375 186.539062 C 108.8125 186.390625 108.726562 186.257812 108.640625 186.128906 C 107.8125 184.882812 106.757812 183.828125 105.757812 182.726562 C 105.390625 182.324219 105.003906 181.929688 104.609375 181.550781 C 104.480469 181.429688 104.296875 181.359375 104.136719 181.28125 C 104.011719 181.21875 103.875 181.179688 103.75 181.117188 C 103.347656 180.914062 102.917969 180.851562 102.472656 180.875 C 102.257812 180.882812 102.050781 180.945312 101.964844 181.152344 C 101.914062 181.28125 101.898438 181.480469 101.960938 181.585938 C 102.023438 181.695312 102.226562 181.808594 102.339844 181.785156 C 103.320312 181.574219 103.875 182.136719 104.328125 182.859375 C 104.484375 183.109375 104.601562 183.390625 104.699219 183.667969 C 104.957031 184.410156 104.847656 185.054688 103.914062 185.65625 C 103.367188 186.007812 102.75 186.039062 102.148438 185.894531 C 101.585938 185.757812 101.046875 185.542969 100.503906 185.347656 C 100.09375 185.199219 99.695312 185.015625 99.285156 184.855469 C 98.929688 184.71875 98.824219 184.757812 98.558594 185.050781 C 98.5 185.113281 98.421875 185.175781 98.339844 185.203125 C 96.890625 185.65625 95.652344 186.453125 94.539062 187.460938 C 93.296875 187.238281 92.609375 186.441406 92.582031 185.207031 Z M 95.839844 194.878906 C 94.980469 194.617188 94.347656 194.125 94.027344 193.253906 C 93.699219 192.363281 93.476562 191.460938 93.703125 190.5 C 93.835938 189.925781 94.117188 189.417969 94.457031 188.949219 C 95.65625 187.3125 97.28125 186.324219 99.253906 185.886719 C 99.390625 185.855469 99.558594 185.910156 99.699219 185.960938 C 100.316406 186.1875 100.953125 186.371094 101.535156 186.664062 C 102.105469 186.953125 102.714844 187.074219 103.300781 187.273438 C 104.515625 187.679688 105.613281 188.3125 106.640625 189.0625 C 109.179688 190.910156 111.5625 192.929688 113.679688 195.261719 C 115.121094 196.855469 116.582031 198.421875 118.050781 199.988281 C 118.695312 200.675781 119.367188 201.332031 120.050781 201.976562 C 120.789062 202.667969 121.660156 203.179688 122.601562 203.535156 C 122.933594 203.664062 123.199219 203.824219 123.457031 204.042969 C 124.886719 205.265625 126.511719 204.378906 126.925781 203.066406 C 126.957031 202.972656 126.988281 202.882812 126.996094 202.792969 C 127.015625 202.566406 126.886719 202.375 126.695312 202.316406 C 126.496094 202.257812 126.304688 202.34375 126.199219 202.5625 C 126.128906 202.703125 126.089844 202.855469 126.023438 203 C 125.667969 203.75 124.863281 203.976562 124.179688 203.511719 C 124.015625 203.398438 123.839844 203.265625 123.730469 203.105469 C 123.050781 202.097656 122.765625 201.027344 123.390625 199.890625 C 123.597656 199.507812 123.859375 199.140625 124.167969 198.835938 C 125.019531 197.992188 126.035156 197.808594 127.15625 198.222656 C 127.613281 198.390625 128.027344 198.652344 128.367188 199.011719 C 129.269531 199.984375 129.648438 201.179688 129.578125 202.460938 C 129.492188 203.9375 128.644531 204.996094 127.363281 205.667969 C 126.832031 205.949219 126.230469 206.113281 125.648438 206.285156 C 124.789062 206.535156 123.90625 206.660156 123.089844 206.699219 C 122.359375 206.691406 121.730469 206.589844 121.117188 206.386719 C 119.273438 205.78125 117.59375 204.855469 115.996094 203.757812 C 114.949219 203.039062 114 202.195312 113.046875 201.363281 C 111.167969 199.71875 109.140625 198.269531 107.0625 196.902344 C 105.054688 195.578125 102.796875 194.949219 100.417969 194.816406 C 99.503906 194.769531 98.578125 194.945312 97.65625 195.003906 C 97.042969 195.039062 96.433594 195.0625 95.839844 194.878906 Z M 87.289062 232.105469 C 86.496094 231.671875 85.828125 231.085938 85.351562 230.300781 C 84.804688 229.394531 84.628906 228.421875 84.980469 227.417969 C 85.539062 225.835938 86.558594 224.683594 88.242188 224.265625 C 89.542969 223.941406 90.679688 224.253906 91.664062 225.210938 C 91.394531 226.089844 91.039062 226.898438 90.40625 227.558594 C 90.066406 227.917969 89.636719 228.132812 89.164062 228.28125 C 88.859375 228.375 88.613281 228.300781 88.378906 228.117188 C 88.066406 227.863281 87.835938 227.867188 87.671875 228.113281 C 87.5 228.367188 87.585938 228.714844 87.878906 228.875 C 88.390625 229.148438 88.914062 229.296875 89.5 229.082031 C 90.207031 228.824219 90.820312 228.453125 91.296875 227.855469 C 91.738281 227.292969 92.058594 226.675781 92.308594 226.011719 C 92.855469 224.542969 93.152344 223.011719 93.410156 221.476562 C 93.792969 219.226562 93.730469 216.949219 93.800781 214.683594 C 93.511719 212.675781 93.640625 210.65625 93.640625 208.640625 C 93.640625 205.644531 94.179688 202.722656 95.136719 199.886719 C 95.558594 198.640625 96.121094 197.453125 96.835938 196.335938 C 97.027344 196.042969 97.238281 195.875 97.621094 195.863281 C 98.324219 195.839844 99.023438 195.722656 99.726562 195.671875 C 100.929688 195.582031 103.285156 196.03125 104.316406 196.535156 C 104.144531 196.71875 103.96875 196.898438 103.800781 197.078125 C 102.761719 198.195312 102.015625 199.496094 101.453125 200.898438 C 100.328125 203.679688 99.535156 206.558594 99.164062 209.535156 C 98.859375 212.019531 98.59375 214.511719 98.316406 217 C 98.078125 219.128906 97.84375 221.265625 97.351562 223.351562 C 96.816406 225.652344 96.019531 227.851562 94.570312 229.765625 C 93.75 230.84375 92.816406 231.785156 91.515625 232.242188 C 90.101562 232.746094 88.667969 232.863281 87.289062 232.105469 Z M 93.367188 233.746094 C 92.300781 233.972656 91.25 233.894531 90.207031 233.617188 C 90.144531 233.597656 90.082031 233.566406 90.023438 233.46875 C 90.09375 233.453125 90.160156 233.429688 90.230469 233.421875 C 91.847656 233.269531 93.191406 232.550781 94.304688 231.398438 C 95.414062 230.246094 96.269531 228.921875 96.910156 227.460938 C 97.839844 225.355469 98.394531 223.140625 98.679688 220.863281 C 99.03125 218.054688 99.328125 215.238281 99.652344 212.421875 C 99.988281 209.496094 100.386719 206.582031 101.339844 203.777344 C 101.738281 202.609375 102.179688 201.453125 102.671875 200.320312 C 103.101562 199.324219 103.710938 198.425781 104.457031 197.632812 C 104.574219 197.507812 104.691406 197.378906 104.820312 197.265625 C 105.15625 196.96875 105.425781 196.917969 105.796875 197.152344 C 106.628906 197.675781 107.457031 198.214844 108.273438 198.769531 C 108.855469 199.164062 109.414062 199.589844 110.042969 200.046875 C 108.371094 201.25 107.527344 202.972656 106.695312 204.695312 C 105.859375 206.429688 105.359375 208.273438 105.015625 210.152344 C 104.722656 211.785156 104.472656 213.425781 104.253906 215.070312 C 103.773438 218.683594 102.914062 222.199219 101.566406 225.59375 C 100.773438 227.601562 99.628906 229.378906 98.164062 230.953125 C 96.847656 232.367188 95.273438 233.34375 93.367188 233.746094 Z M 98.460938 234.785156 C 97.382812 234.96875 96.308594 235 95.246094 234.726562 C 94.980469 234.660156 94.726562 234.539062 94.390625 234.417969 C 94.574219 234.339844 94.667969 234.289062 94.769531 234.25 C 96.40625 233.648438 97.78125 232.667969 98.945312 231.378906 C 100.699219 229.449219 101.933594 227.226562 102.808594 224.773438 C 103.921875 221.632812 104.679688 218.414062 105.105469 215.113281 C 105.410156 212.722656 105.746094 210.335938 106.394531 208.003906 C 106.9375 206.042969 107.769531 204.214844 108.871094 202.503906 C 109.257812 201.90625 109.707031 201.371094 110.285156 200.945312 C 110.734375 200.613281 110.792969 200.597656 111.210938 200.953125 C 112.050781 201.660156 112.875 202.382812 113.707031 203.097656 C 113.921875 203.28125 114.136719 203.460938 114.378906 203.664062 C 112.703125 205.710938 111.792969 208.078125 111.109375 210.558594 C 110.519531 212.6875 110.09375 214.851562 109.78125 217.035156 C 109.429688 219.484375 109.003906 221.914062 108.300781 224.296875 C 107.304688 227.671875 105.347656 230.382812 102.738281 232.667969 C 101.511719 233.746094 100.101562 234.503906 98.460938 234.785156 Z M 166.710938 228.039062 C 164.824219 227.878906 162.941406 227.703125 161.054688 227.566406 C 156.835938 227.257812 152.601562 227.226562 148.375 227.328125 C 146.199219 227.378906 144.023438 227.488281 141.855469 227.652344 C 139.34375 227.839844 136.828125 228.054688 134.328125 228.351562 C 126.585938 229.277344 118.964844 230.773438 111.578125 233.335938 C 108.285156 234.476562 105.09375 235.839844 102.105469 237.640625 C 100.691406 238.492188 99.351562 239.441406 98.132812 240.558594 C 98.066406 240.621094 97.988281 240.671875 97.917969 240.726562 C 97.894531 240.71875 97.871094 240.703125 97.851562 240.695312 C 97.933594 240.453125 98.003906 240.199219 98.105469 239.964844 C 98.472656 239.144531 99.019531 238.527344 99.800781 238.027344 C 103.355469 235.765625 107.117188 233.933594 111.03125 232.394531 C 116.316406 230.308594 121.757812 228.765625 127.308594 227.59375 C 130.175781 226.984375 133.058594 226.492188 135.960938 226.105469 C 139.316406 225.660156 142.683594 225.347656 146.0625 225.1875 C 149.070312 225.050781 152.078125 225.023438 155.085938 225.148438 C 158.621094 225.296875 162.140625 225.621094 165.625 226.265625 C 165.761719 226.292969 165.925781 226.308594 166.019531 226.394531 C 166.601562 226.933594 167.167969 227.488281 167.703125 228.125 C 167.371094 228.097656 167.042969 228.0625 166.710938 228.039062 Z M 105.40625 174.980469 C 105.582031 174.910156 105.753906 174.84375 105.921875 174.753906 C 106.804688 174.292969 107.753906 174.148438 108.738281 174.183594 C 108.835938 174.1875 108.925781 174.222656 109.039062 174.246094 C 108.449219 175.171875 108.421875 175.914062 108.925781 176.636719 C 109.445312 177.371094 110.398438 177.722656 111.289062 177.496094 C 112.207031 177.265625 112.652344 176.683594 112.824219 175.445312 C 112.949219 175.519531 113.03125 175.5625 113.105469 175.613281 C 113.664062 175.992188 114.160156 176.445312 114.589844 176.96875 C 114.785156 177.203125 114.980469 177.246094 115.210938 177.152344 C 115.445312 177.058594 115.535156 176.878906 115.539062 176.636719 C 115.542969 176.148438 115.527344 175.667969 115.347656 175.203125 C 114.992188 174.289062 114.433594 173.542969 113.601562 172.992188 C 112.753906 172.429688 111.808594 172.175781 110.8125 172.132812 C 108.648438 172.050781 106.769531 172.804688 105.113281 174.167969 C 105.054688 174.214844 104.992188 174.269531 104.949219 174.332031 C 104.824219 174.5 104.808594 174.683594 104.941406 174.851562 C 105.0625 174.996094 105.21875 175.058594 105.40625 174.980469 Z M 111.042969 176.675781 C 110.488281 176.796875 110.015625 176.621094 109.660156 176.191406 C 109.25 175.691406 109.363281 175.042969 109.90625 174.6875 C 110.046875 174.59375 110.195312 174.503906 110.363281 174.402344 C 110.613281 174.480469 110.886719 174.558594 111.148438 174.648438 C 111.625 174.8125 111.941406 175.277344 111.90625 175.75 C 111.871094 176.207031 111.546875 176.566406 111.042969 176.675781 Z M 108.820312 173.191406 C 109.890625 172.9375 110.957031 172.894531 112.023438 173.199219 C 113.253906 173.550781 114.203125 174.441406 114.546875 175.648438 C 112.816406 174.167969 110.890625 173.417969 108.664062 173.3125 C 108.753906 173.246094 108.785156 173.203125 108.820312 173.191406 Z M 112.957031 179.691406 C 113.109375 179.824219 113.152344 180.054688 113.023438 180.25 C 112.808594 180.582031 112.527344 180.867188 112.148438 181.003906 C 111.757812 181.144531 111.34375 181.226562 110.949219 181.332031 C 110.546875 181.234375 110.167969 181.191406 109.828125 181.054688 C 108.164062 180.382812 107.148438 179.109375 106.542969 177.464844 C 106.496094 177.339844 106.480469 177.171875 106.527344 177.058594 C 106.574219 176.949219 106.71875 176.820312 106.824219 176.8125 C 106.957031 176.804688 107.128906 176.882812 107.226562 176.972656 C 107.324219 177.0625 107.355469 177.21875 107.410156 177.347656 C 107.917969 178.613281 108.714844 179.617188 109.984375 180.199219 C 110.488281 180.429688 111.011719 180.507812 111.535156 180.316406 C 111.777344 180.222656 111.988281 180.054688 112.207031 179.910156 C 112.285156 179.859375 112.328125 179.769531 112.40625 179.710938 C 112.597656 179.550781 112.796875 179.546875 112.957031 179.691406 Z M 112.957031 179.691406 " fill-opacity="1" fill-rule="nonzero"/></g><g fill="#ff00c7" fill-opacity="1"><g transform="translate(186.41617, 227.383228)"><g><path d="M 17.78125 -21.484375 C 17.78125 -20.742188 17.710938 -20.09375 17.578125 -19.53125 C 17.710938 -19.007812 17.78125 -18.359375 17.78125 -17.578125 C 17.78125 -16.828125 17.710938 -16.175781 17.578125 -15.625 L 15.625 -15.625 C 15.757812 -15.101562 15.828125 -14.453125 15.828125 -13.671875 C 15.828125 -12.921875 15.757812 -12.269531 15.625 -11.71875 L 5.859375 -11.71875 C 5.992188 -11.195312 6.0625 -10.546875 6.0625 -9.765625 C 6.0625 -9.015625 5.992188 -8.363281 5.859375 -7.8125 C 5.992188 -7.289062 6.0625 -6.640625 6.0625 -5.859375 C 6.0625 -5.109375 5.992188 -4.457031 5.859375 -3.90625 C 5.992188 -3.382812 6.0625 -2.734375 6.0625 -1.953125 C 6.0625 -1.203125 5.992188 -0.550781 5.859375 0 L 1.953125 0 C 1.828125 -0.550781 1.765625 -1.203125 1.765625 -1.953125 C 1.765625 -2.734375 1.828125 -3.382812 1.953125 -3.90625 C 1.828125 -4.457031 1.765625 -5.109375 1.765625 -5.859375 C 1.765625 -6.640625 1.828125 -7.289062 1.953125 -7.8125 C 1.828125 -8.363281 1.765625 -9.015625 1.765625 -9.765625 C 1.765625 -10.546875 1.828125 -11.195312 1.953125 -11.71875 C 1.828125 -12.269531 1.765625 -12.921875 1.765625 -13.671875 C 1.765625 -14.453125 1.828125 -15.101562 1.953125 -15.625 C 1.828125 -16.175781 1.765625 -16.828125 1.765625 -17.578125 C 1.765625 -18.359375 1.828125 -19.007812 1.953125 -19.53125 C 1.828125 -20.09375 1.765625 -20.742188 1.765625 -21.484375 C 1.765625 -22.265625 1.828125 -22.914062 1.953125 -23.4375 C 1.828125 -24 1.765625 -24.65625 1.765625 -25.40625 C 1.765625 -26.1875 1.828125 -26.835938 1.953125 -27.359375 L 15.625 -27.359375 C 15.757812 -26.835938 15.828125 -26.1875 15.828125 -25.40625 C 15.828125 -24.65625 15.757812 -24 15.625 -23.4375 L 17.578125 -23.4375 C 17.710938 -22.914062 17.78125 -22.265625 17.78125 -21.484375 Z M 13.671875 -15.625 C 13.546875 -16.175781 13.484375 -16.828125 13.484375 -17.578125 C 13.484375 -18.359375 13.546875 -19.007812 13.671875 -19.53125 C 13.546875 -20.09375 13.484375 -20.742188 13.484375 -21.484375 C 13.484375 -22.265625 13.546875 -22.914062 13.671875 -23.4375 L 5.859375 -23.4375 C 5.992188 -22.914062 6.0625 -22.265625 6.0625 -21.484375 C 6.0625 -20.742188 5.992188 -20.09375 5.859375 -19.53125 C 5.992188 -19.007812 6.0625 -18.359375 6.0625 -17.578125 C 6.0625 -16.828125 5.992188 -16.175781 5.859375 -15.625 Z M 13.671875 -15.625 "/></g></g></g><g fill="#ff00c7" fill-opacity="1"><g transform="translate(213.959265, 227.383228)"><g><path d="M 17.578125 -3.90625 C 17.710938 -3.382812 17.78125 -2.734375 17.78125 -1.953125 C 17.78125 -1.203125 17.710938 -0.550781 17.578125 0 L 13.671875 0 C 13.546875 -0.550781 13.484375 -1.203125 13.484375 -1.953125 C 13.484375 -2.734375 13.546875 -3.382812 13.671875 -3.90625 L 12.21875 -3.90625 C 12.082031 -4.457031 12.015625 -5.109375 12.015625 -5.859375 C 12.015625 -6.640625 12.082031 -7.289062 12.21875 -7.8125 L 10.75 -7.8125 C 10.613281 -8.363281 10.546875 -9.015625 10.546875 -9.765625 C 10.546875 -10.546875 10.613281 -11.195312 10.75 -11.71875 L 5.859375 -11.71875 C 5.992188 -11.195312 6.0625 -10.546875 6.0625 -9.765625 C 6.0625 -9.015625 5.992188 -8.363281 5.859375 -7.8125 C 5.992188 -7.289062 6.0625 -6.640625 6.0625 -5.859375 C 6.0625 -5.109375 5.992188 -4.457031 5.859375 -3.90625 C 5.992188 -3.382812 6.0625 -2.734375 6.0625 -1.953125 C 6.0625 -1.203125 5.992188 -0.550781 5.859375 0 L 1.953125 0 C 1.828125 -0.550781 1.765625 -1.203125 1.765625 -1.953125 C 1.765625 -2.734375 1.828125 -3.382812 1.953125 -3.90625 C 1.828125 -4.457031 1.765625 -5.109375 1.765625 -5.859375 C 1.765625 -6.640625 1.828125 -7.289062 1.953125 -7.8125 C 1.828125 -8.363281 1.765625 -9.015625 1.765625 -9.765625 C 1.765625 -10.546875 1.828125 -11.195312 1.953125 -11.71875 C 1.828125 -12.269531 1.765625 -12.921875 1.765625 -13.671875 C 1.765625 -14.453125 1.828125 -15.101562 1.953125 -15.625 C 1.828125 -16.175781 1.765625 -16.828125 1.765625 -17.578125 C 1.765625 -18.359375 1.828125 -19.007812 1.953125 -19.53125 C 1.828125 -20.09375 1.765625 -20.742188 1.765625 -21.484375 C 1.765625 -22.265625 1.828125 -22.914062 1.953125 -23.4375 C 1.828125 -24 1.765625 -24.65625 1.765625 -25.40625 C 1.765625 -26.1875 1.828125 -26.835938 1.953125 -27.359375 L 15.625 -27.359375 C 15.757812 -26.835938 15.828125 -26.1875 15.828125 -25.40625 C 15.828125 -24.65625 15.757812 -24 15.625 -23.4375 L 17.578125 -23.4375 C 17.710938 -22.914062 17.78125 -22.265625 17.78125 -21.484375 C 17.78125 -20.742188 17.710938 -20.09375 17.578125 -19.53125 L 16.609375 -19.53125 C 16.734375 -19.007812 16.796875 -18.359375 16.796875 -17.578125 C 16.796875 -16.828125 16.734375 -16.175781 16.609375 -15.625 L 13.671875 -15.625 C 13.804688 -15.101562 13.875 -14.453125 13.875 -13.671875 C 13.875 -12.921875 13.804688 -12.269531 13.671875 -11.71875 L 14.65625 -11.71875 C 14.78125 -11.195312 14.84375 -10.546875 14.84375 -9.765625 C 14.84375 -9.015625 14.78125 -8.363281 14.65625 -7.8125 L 16.125 -7.8125 C 16.25 -7.289062 16.3125 -6.640625 16.3125 -5.859375 C 16.3125 -5.109375 16.25 -4.457031 16.125 -3.90625 Z M 12.703125 -15.625 C 12.566406 -16.175781 12.5 -16.828125 12.5 -17.578125 C 12.5 -18.359375 12.566406 -19.007812 12.703125 -19.53125 C 12.566406 -20.09375 12.5 -20.742188 12.5 -21.484375 C 12.5 -22.265625 12.566406 -22.914062 12.703125 -23.4375 L 5.859375 -23.4375 C 5.992188 -22.914062 6.0625 -22.265625 6.0625 -21.484375 C 6.0625 -20.742188 5.992188 -20.09375 5.859375 -19.53125 C 5.992188 -19.007812 6.0625 -18.359375 6.0625 -17.578125 C 6.0625 -16.828125 5.992188 -16.175781 5.859375 -15.625 Z M 12.703125 -15.625 "/></g></g></g><g fill="#ff00c7" fill-opacity="1"><g transform="translate(241.50236, 227.383228)"><g><path d="M 17.578125 -15.625 C 17.710938 -15.101562 17.78125 -14.453125 17.78125 -13.671875 C 17.78125 -12.921875 17.710938 -12.269531 17.578125 -11.71875 C 17.710938 -11.195312 17.78125 -10.546875 17.78125 -9.765625 C 17.78125 -9.015625 17.710938 -8.363281 17.578125 -7.8125 L 16.125 -7.8125 C 16.25 -7.289062 16.3125 -6.640625 16.3125 -5.859375 C 16.3125 -5.109375 16.25 -4.457031 16.125 -3.90625 L 13.671875 -3.90625 C 13.804688 -3.382812 13.875 -2.734375 13.875 -1.953125 C 13.875 -1.203125 13.804688 -0.550781 13.671875 0 L 5.859375 0 C 5.734375 -0.550781 5.671875 -1.203125 5.671875 -1.953125 C 5.671875 -2.734375 5.734375 -3.382812 5.859375 -3.90625 L 3.421875 -3.90625 C 3.285156 -4.457031 3.21875 -5.109375 3.21875 -5.859375 C 3.21875 -6.640625 3.285156 -7.289062 3.421875 -7.8125 L 1.953125 -7.8125 C 1.828125 -8.363281 1.765625 -9.015625 1.765625 -9.765625 C 1.765625 -10.546875 1.828125 -11.195312 1.953125 -11.71875 C 1.828125 -12.269531 1.765625 -12.921875 1.765625 -13.671875 C 1.765625 -14.453125 1.828125 -15.101562 1.953125 -15.625 C 1.828125 -16.175781 1.765625 -16.828125 1.765625 -17.578125 C 1.765625 -18.359375 1.828125 -19.007812 1.953125 -19.53125 L 3.421875 -19.53125 C 3.285156 -20.09375 3.21875 -20.742188 3.21875 -21.484375 C 3.21875 -22.265625 3.285156 -22.914062 3.421875 -23.4375 L 5.859375 -23.4375 C 5.734375 -24 5.671875 -24.65625 5.671875 -25.40625 C 5.671875 -26.1875 5.734375 -26.835938 5.859375 -27.359375 L 13.671875 -27.359375 C 13.804688 -26.835938 13.875 -26.1875 13.875 -25.40625 C 13.875 -24.65625 13.804688 -24 13.671875 -23.4375 L 16.125 -23.4375 C 16.25 -22.914062 16.3125 -22.265625 16.3125 -21.484375 C 16.3125 -20.742188 16.25 -20.09375 16.125 -19.53125 L 17.578125 -19.53125 C 17.710938 -19.007812 17.78125 -18.359375 17.78125 -17.578125 C 17.78125 -16.828125 17.710938 -16.175781 17.578125 -15.625 Z M 13.671875 -7.8125 C 13.546875 -8.363281 13.484375 -9.015625 13.484375 -9.765625 C 13.484375 -10.546875 13.546875 -11.195312 13.671875 -11.71875 C 13.546875 -12.269531 13.484375 -12.921875 13.484375 -13.671875 C 13.484375 -14.453125 13.546875 -15.101562 13.671875 -15.625 C 13.546875 -16.175781 13.484375 -16.828125 13.484375 -17.578125 C 13.484375 -18.359375 13.546875 -19.007812 13.671875 -19.53125 L 12.21875 -19.53125 C 12.082031 -20.09375 12.015625 -20.742188 12.015625 -21.484375 C 12.015625 -22.265625 12.082031 -22.914062 12.21875 -23.4375 L 7.328125 -23.4375 C 7.453125 -22.914062 7.515625 -22.265625 7.515625 -21.484375 C 7.515625 -20.742188 7.453125 -20.09375 7.328125 -19.53125 L 5.859375 -19.53125 C 5.992188 -19.007812 6.0625 -18.359375 6.0625 -17.578125 C 6.0625 -16.828125 5.992188 -16.175781 5.859375 -15.625 C 5.992188 -15.101562 6.0625 -14.453125 6.0625 -13.671875 C 6.0625 -12.921875 5.992188 -12.269531 5.859375 -11.71875 C 5.992188 -11.195312 6.0625 -10.546875 6.0625 -9.765625 C 6.0625 -9.015625 5.992188 -8.363281 5.859375 -7.8125 L 7.328125 -7.8125 C 7.453125 -7.289062 7.515625 -6.640625 7.515625 -5.859375 C 7.515625 -5.109375 7.453125 -4.457031 7.328125 -3.90625 L 12.21875 -3.90625 C 12.082031 -4.457031 12.015625 -5.109375 12.015625 -5.859375 C 12.015625 -6.640625 12.082031 -7.289062 12.21875 -7.8125 Z M 13.671875 -7.8125 "/></g></g></g><g fill="#ff00c7" fill-opacity="1"><g transform="translate(269.045455, 227.383228)"><g><path d="M 16.796875 -25.40625 C 16.796875 -24.65625 16.734375 -24 16.609375 -23.4375 L 13.671875 -23.4375 C 13.804688 -22.914062 13.875 -22.265625 13.875 -21.484375 C 13.875 -20.742188 13.804688 -20.09375 13.671875 -19.53125 C 13.804688 -19.007812 13.875 -18.359375 13.875 -17.578125 C 13.875 -16.828125 13.804688 -16.175781 13.671875 -15.625 C 13.804688 -15.101562 13.875 -14.453125 13.875 -13.671875 C 13.875 -12.921875 13.804688 -12.269531 13.671875 -11.71875 C 13.804688 -11.195312 13.875 -10.546875 13.875 -9.765625 C 13.875 -9.015625 13.804688 -8.363281 13.671875 -7.8125 C 13.804688 -7.289062 13.875 -6.640625 13.875 -5.859375 C 13.875 -5.109375 13.804688 -4.457031 13.671875 -3.90625 L 11.71875 -3.90625 C 11.851562 -3.382812 11.921875 -2.734375 11.921875 -1.953125 C 11.921875 -1.203125 11.851562 -0.550781 11.71875 0 L 3.90625 0 C 3.78125 -0.550781 3.71875 -1.203125 3.71875 -1.953125 C 3.71875 -2.734375 3.78125 -3.382812 3.90625 -3.90625 L 1.953125 -3.90625 C 1.828125 -4.457031 1.765625 -5.109375 1.765625 -5.859375 C 1.765625 -6.640625 1.828125 -7.289062 1.953125 -7.8125 L 5.859375 -7.8125 C 5.992188 -7.289062 6.0625 -6.640625 6.0625 -5.859375 C 6.0625 -5.109375 5.992188 -4.457031 5.859375 -3.90625 L 9.765625 -3.90625 C 9.640625 -4.457031 9.578125 -5.109375 9.578125 -5.859375 C 9.578125 -6.640625 9.640625 -7.289062 9.765625 -7.8125 C 9.640625 -8.363281 9.578125 -9.015625 9.578125 -9.765625 C 9.578125 -10.546875 9.640625 -11.195312 9.765625 -11.71875 C 9.640625 -12.269531 9.578125 -12.921875 9.578125 -13.671875 C 9.578125 -14.453125 9.640625 -15.101562 9.765625 -15.625 C 9.640625 -16.175781 9.578125 -16.828125 9.578125 -17.578125 C 9.578125 -18.359375 9.640625 -19.007812 9.765625 -19.53125 C 9.640625 -20.09375 9.578125 -20.742188 9.578125 -21.484375 C 9.578125 -22.265625 9.640625 -22.914062 9.765625 -23.4375 L 6.84375 -23.4375 C 6.707031 -24 6.640625 -24.65625 6.640625 -25.40625 C 6.640625 -26.1875 6.707031 -26.835938 6.84375 -27.359375 L 16.609375 -27.359375 C 16.734375 -26.835938 16.796875 -26.1875 16.796875 -25.40625 Z M 16.796875 -25.40625 "/></g></g></g><g fill="#ff00c7" fill-opacity="1"><g transform="translate(296.58855, 227.383228)"><g><path d="M 7.8125 -11.71875 C 7.945312 -11.195312 8.015625 -10.546875 8.015625 -9.765625 C 8.015625 -9.015625 7.945312 -8.363281 7.8125 -7.8125 C 7.945312 -7.289062 8.015625 -6.640625 8.015625 -5.859375 C 8.015625 -5.109375 7.945312 -4.457031 7.8125 -3.90625 L 15.625 -3.90625 C 15.757812 -3.382812 15.828125 -2.734375 15.828125 -1.953125 C 15.828125 -1.203125 15.757812 -0.550781 15.625 0 L 3.90625 0 C 3.78125 -0.550781 3.71875 -1.203125 3.71875 -1.953125 C 3.71875 -2.734375 3.78125 -3.382812 3.90625 -3.90625 C 3.78125 -4.457031 3.71875 -5.109375 3.71875 -5.859375 C 3.71875 -6.640625 3.78125 -7.289062 3.90625 -7.8125 C 3.78125 -8.363281 3.71875 -9.015625 3.71875 -9.765625 C 3.71875 -10.546875 3.78125 -11.195312 3.90625 -11.71875 C 3.78125 -12.269531 3.71875 -12.921875 3.71875 -13.671875 C 3.71875 -14.453125 3.78125 -15.101562 3.90625 -15.625 C 3.78125 -16.175781 3.71875 -16.828125 3.71875 -17.578125 C 3.71875 -18.359375 3.78125 -19.007812 3.90625 -19.53125 C 3.78125 -20.09375 3.71875 -20.742188 3.71875 -21.484375 C 3.71875 -22.265625 3.78125 -22.914062 3.90625 -23.4375 C 3.78125 -24 3.71875 -24.65625 3.71875 -25.40625 C 3.71875 -26.1875 3.78125 -26.835938 3.90625 -27.359375 L 15.625 -27.359375 C 15.757812 -26.835938 15.828125 -26.1875 15.828125 -25.40625 C 15.828125 -24.65625 15.757812 -24 15.625 -23.4375 L 7.8125 -23.4375 C 7.945312 -22.914062 8.015625 -22.265625 8.015625 -21.484375 C 8.015625 -20.742188 7.945312 -20.09375 7.8125 -19.53125 C 7.945312 -19.007812 8.015625 -18.359375 8.015625 -17.578125 C 8.015625 -16.828125 7.945312 -16.175781 7.8125 -15.625 L 15.625 -15.625 C 15.757812 -15.101562 15.828125 -14.453125 15.828125 -13.671875 C 15.828125 -12.921875 15.757812 -12.269531 15.625 -11.71875 Z M 7.8125 -11.71875 "/></g></g></g><g fill="#ff00c7" fill-opacity="1"><g transform="translate(324.131639, 227.383228)"><g><path d="M 17.578125 -7.8125 C 17.710938 -7.289062 17.78125 -6.640625 17.78125 -5.859375 C 17.78125 -5.109375 17.710938 -4.457031 17.578125 -3.90625 L 15.625 -3.90625 C 15.757812 -3.382812 15.828125 -2.734375 15.828125 -1.953125 C 15.828125 -1.203125 15.757812 -0.550781 15.625 0 L 5.859375 0 C 5.734375 -0.550781 5.671875 -1.203125 5.671875 -1.953125 C 5.671875 -2.734375 5.734375 -3.382812 5.859375 -3.90625 L 3.90625 -3.90625 C 3.78125 -4.457031 3.71875 -5.109375 3.71875 -5.859375 C 3.71875 -6.640625 3.78125 -7.289062 3.90625 -7.8125 L 1.953125 -7.8125 C 1.828125 -8.363281 1.765625 -9.015625 1.765625 -9.765625 C 1.765625 -10.546875 1.828125 -11.195312 1.953125 -11.71875 C 1.828125 -12.269531 1.765625 -12.921875 1.765625 -13.671875 C 1.765625 -14.453125 1.828125 -15.101562 1.953125 -15.625 C 1.828125 -16.175781 1.765625 -16.828125 1.765625 -17.578125 C 1.765625 -18.359375 1.828125 -19.007812 1.953125 -19.53125 L 3.90625 -19.53125 C 3.78125 -20.09375 3.71875 -20.742188 3.71875 -21.484375 C 3.71875 -22.265625 3.78125 -22.914062 3.90625 -23.4375 L 5.859375 -23.4375 C 5.734375 -24 5.671875 -24.65625 5.671875 -25.40625 C 5.671875 -26.1875 5.734375 -26.835938 5.859375 -27.359375 L 15.625 -27.359375 C 15.757812 -26.835938 15.828125 -26.1875 15.828125 -25.40625 C 15.828125 -24.65625 15.757812 -24 15.625 -23.4375 L 17.578125 -23.4375 C 17.710938 -22.914062 17.78125 -22.265625 17.78125 -21.484375 C 17.78125 -20.742188 17.710938 -20.09375 17.578125 -19.53125 L 13.671875 -19.53125 C 13.546875 -20.09375 13.484375 -20.742188 13.484375 -21.484375 C 13.484375 -22.265625 13.546875 -22.914062 13.671875 -23.4375 L 7.8125 -23.4375 C 7.945312 -22.914062 8.015625 -22.265625 8.015625 -21.484375 C 8.015625 -20.742188 7.945312 -20.09375 7.8125 -19.53125 L 5.859375 -19.53125 C 5.992188 -19.007812 6.0625 -18.359375 6.0625 -17.578125 C 6.0625 -16.828125 5.992188 -16.175781 5.859375 -15.625 C 5.992188 -15.101562 6.0625 -14.453125 6.0625 -13.671875 C 6.0625 -12.921875 5.992188 -12.269531 5.859375 -11.71875 C 5.992188 -11.195312 6.0625 -10.546875 6.0625 -9.765625 C 6.0625 -9.015625 5.992188 -8.363281 5.859375 -7.8125 L 7.8125 -7.8125 C 7.945312 -7.289062 8.015625 -6.640625 8.015625 -5.859375 C 8.015625 -5.109375 7.945312 -4.457031 7.8125 -3.90625 L 13.671875 -3.90625 C 13.546875 -4.457031 13.484375 -5.109375 13.484375 -5.859375 C 13.484375 -6.640625 13.546875 -7.289062 13.671875 -7.8125 Z M 17.578125 -7.8125 "/></g></g></g><g fill="#ff00c7" fill-opacity="1"><g transform="translate(351.674728, 227.383228)"><g><path d="M 17.78125 -25.40625 C 17.78125 -24.65625 17.710938 -24 17.578125 -23.4375 L 11.71875 -23.4375 C 11.851562 -22.914062 11.921875 -22.265625 11.921875 -21.484375 C 11.921875 -20.742188 11.851562 -20.09375 11.71875 -19.53125 C 11.851562 -19.007812 11.921875 -18.359375 11.921875 -17.578125 C 11.921875 -16.828125 11.851562 -16.175781 11.71875 -15.625 C 11.851562 -15.101562 11.921875 -14.453125 11.921875 -13.671875 C 11.921875 -12.921875 11.851562 -12.269531 11.71875 -11.71875 C 11.851562 -11.195312 11.921875 -10.546875 11.921875 -9.765625 C 11.921875 -9.015625 11.851562 -8.363281 11.71875 -7.8125 C 11.851562 -7.289062 11.921875 -6.640625 11.921875 -5.859375 C 11.921875 -5.109375 11.851562 -4.457031 11.71875 -3.90625 C 11.851562 -3.382812 11.921875 -2.734375 11.921875 -1.953125 C 11.921875 -1.203125 11.851562 -0.550781 11.71875 0 L 7.8125 0 C 7.6875 -0.550781 7.625 -1.203125 7.625 -1.953125 C 7.625 -2.734375 7.6875 -3.382812 7.8125 -3.90625 C 7.6875 -4.457031 7.625 -5.109375 7.625 -5.859375 C 7.625 -6.640625 7.6875 -7.289062 7.8125 -7.8125 C 7.6875 -8.363281 7.625 -9.015625 7.625 -9.765625 C 7.625 -10.546875 7.6875 -11.195312 7.8125 -11.71875 C 7.6875 -12.269531 7.625 -12.921875 7.625 -13.671875 C 7.625 -14.453125 7.6875 -15.101562 7.8125 -15.625 C 7.6875 -16.175781 7.625 -16.828125 7.625 -17.578125 C 7.625 -18.359375 7.6875 -19.007812 7.8125 -19.53125 C 7.6875 -20.09375 7.625 -20.742188 7.625 -21.484375 C 7.625 -22.265625 7.6875 -22.914062 7.8125 -23.4375 L 1.953125 -23.4375 C 1.828125 -24 1.765625 -24.65625 1.765625 -25.40625 C 1.765625 -26.1875 1.828125 -26.835938 1.953125 -27.359375 L 17.578125 -27.359375 C 17.710938 -26.835938 17.78125 -26.1875 17.78125 -25.40625 Z M 17.78125 -25.40625 "/></g></g></g><path stroke-linecap="butt" transform="matrix(0.75, 0, 0, 0.75, 138.282915, 119.743336)" fill="none" stroke-linejoin="miter" d="M 106.273829 66.44639 C 106.273829 76.774515 104.289454 84.243266 100.320704 88.847433 C 96.367579 93.435975 89.919661 95.73285 80.976952 95.73285 C 71.367577 95.73285 64.737368 93.597433 61.07591 89.331808 C 57.419659 85.071391 55.586326 77.441182 55.586326 66.44639 C 55.586326 56.165139 57.581118 48.727638 61.565493 44.139096 C 65.565493 39.545346 72.034244 37.253679 80.976952 37.253679 C 90.58112 37.253679 97.200912 39.383888 100.83112 43.649513 C 104.461329 47.899513 106.273829 55.498472 106.273829 66.44639 Z M 66.101952 82.847432 C 67.252993 84.899516 68.940493 86.352641 71.16966 87.206808 C 73.414452 88.050558 76.680077 88.472433 80.976952 88.472433 C 87.690495 88.472433 92.284245 86.852641 94.763412 83.623474 C 97.242579 80.389099 98.482162 74.66514 98.482162 66.44639 C 98.482162 62.331806 98.26862 58.956806 97.841537 56.331806 C 97.414454 53.706805 96.747787 51.571389 95.851953 49.935972 C 94.700912 47.883888 93.01862 46.425555 90.805078 45.550555 C 88.601953 44.670346 85.331119 44.227638 80.976952 44.227638 C 74.20091 44.227638 69.57591 45.863055 67.096743 49.139097 C 64.633201 52.399514 63.404035 58.170347 63.404035 66.44639 C 63.404035 70.550556 63.60716 73.920348 64.018618 76.560974 C 64.45091 79.191182 65.143618 81.284932 66.101952 82.847432 Z M 142.258207 94.998475 L 125.768622 94.998475 L 125.768622 38.159929 L 142.258207 38.159929 C 148.070707 38.159929 152.680082 38.649513 156.091541 39.623471 C 159.497791 40.581804 162.237374 42.113055 164.299875 44.227638 C 166.351958 46.34743 167.841542 49.212013 168.773833 52.810972 C 169.716542 56.399514 170.1905 60.972431 170.1905 66.534931 C 170.1905 76.394307 167.982167 83.602641 163.570708 88.159933 C 159.159249 92.722433 152.055082 94.998475 142.258207 94.998475 Z M 158.502999 49.758888 C 157.101957 48.133888 155.159249 46.962013 152.680082 46.238055 C 150.200915 45.50368 146.726957 45.133888 142.258207 45.133888 L 133.466539 45.133888 L 133.466539 87.738058 L 142.258207 87.738058 C 149.752999 87.738058 154.966541 86.139099 157.904041 82.935974 C 160.841541 79.732849 162.310291 74.269307 162.310291 66.534931 C 162.310291 62.243264 162.008208 58.769306 161.404041 56.113056 C 160.794666 53.456805 159.831124 51.337014 158.502999 49.758888 Z M 197.28946 38.159929 L 197.28946 94.998475 L 189.591543 94.998475 L 189.591543 38.159929 Z M 265.737381 38.159929 L 265.737381 94.998475 L 257.945714 94.998475 L 226.492587 50.75368 L 226.492587 94.998475 L 219.237378 94.998475 L 219.237378 38.159929 L 227.023837 38.159929 L 258.476964 83.024516 L 258.476964 38.159929 Z M 265.737381 38.159929 " stroke="#00ffff" stroke-width="2.266668" stroke-opacity="1" stroke-miterlimit="4"/></svg>